<?xml version="1.0" standalone="no"?>
<!DOCTYPE svg PUBLIC "-//W3C//DTD SVG 20010904//EN"
 "http://www.w3.org/TR/2001/REC-SVG-20010904/DTD/svg10.dtd">
<svg version="1.0" xmlns="http://www.w3.org/2000/svg"
 width="512.000000pt" height="512.000000pt" viewBox="0 0 512.000000 512.000000"
 preserveAspectRatio="xMidYMid meet">
<metadata>
Created by potrace 1.14, written by Peter Selinger 2001-2017
</metadata>
<g transform="translate(0.000000,512.000000) scale(0.100000,-0.100000)"
fill="#000000" stroke="none">
<path d="M2325 5114 c-319 -33 -609 -116 -900 -259 -667 -328 -1152 -922
-1345 -1649 -61 -230 -74 -344 -75 -641 0 -295 9 -377 66 -612 112 -461 369
-910 705 -1233 410 -394 924 -638 1484 -706 218 -26 534 -17 750 22 305 55
661 192 910 350 316 201 613 498 814 814 86 135 200 379 254 541 94 287 132
518 132 817 0 415 -78 755 -260 1127 -253 518 -655 921 -1175 1175 -242 118
-481 194 -745 235 -101 16 -518 29 -615 19z m-26 -817 c163 -176 275 -351 214
-333 -10 3 -52 15 -95 27 l-76 22 -246 -48 -246 -47 0 -353 0 -353 23 -6 c12
-3 67 -6 122 -5 l100 0 73 92 c40 51 81 103 92 115 l20 24 93 -80 c51 -45 121
-110 155 -147 69 -73 71 -97 11 -109 -17 -3 -179 -6 -360 -6 l-329 0 0 -159 0
-159 84 -46 c208 -113 342 -252 448 -461 47 -93 58 -169 39 -281 -16 -94 -45
-152 -86 -171 -74 -35 -107 5 -165 202 -74 249 -180 455 -285 555 l-36 35 5
-825 c3 -454 7 -854 8 -890 l3 -65 -38 -18 c-22 -11 -81 -23 -141 -30 -160
-16 -176 2 -165 185 4 57 7 387 8 733 l0 630 -26 -60 c-85 -199 -284 -483
-576 -822 -68 -79 -84 -92 -118 -98 -58 -10 -72 6 -67 76 4 53 12 69 100 201
303 455 501 900 587 1318 12 58 24 115 27 128 l5 23 -268 -3 c-268 -3 -268 -3
-314 -29 l-46 -26 -60 101 c-42 70 -56 102 -46 104 7 2 44 -2 81 -8 38 -7 207
-15 395 -17 l327 -5 0 331 0 331 -37 -5 c-95 -13 -634 -75 -657 -75 -13 0 -37
11 -53 24 l-27 24 32 19 c17 11 109 37 204 57 398 88 826 228 1148 377 58 27
108 49 112 49 4 0 25 -19 47 -43z m1838 -278 c173 -116 292 -234 279 -276 -3
-11 -37 -43 -74 -71 -38 -29 -74 -62 -81 -75 -10 -18 -11 -274 -7 -1188 4
-640 7 -1209 9 -1263 l2 -100 -32 -19 c-43 -24 -224 -45 -259 -28 -46 21 -56
66 -48 222 l7 139 -442 0 -442 0 5 -52 c3 -29 8 -96 11 -148 6 -91 5 -96 -17
-117 -13 -12 -42 -26 -66 -33 -58 -15 -228 -18 -242 -4 -22 22 -26 80 -18 259
8 167 4 2638 -3 2715 -4 31 -2 35 18 32 11 -2 104 -39 205 -82 l183 -80 343 0
c278 0 348 3 370 14 15 8 67 55 117 105 49 50 97 91 106 91 9 0 43 -18 76 -41z"/>
<path d="M3040 2605 l0 -1155 450 0 450 0 0 1124 c0 789 -3 1132 -11 1155
l-11 31 -439 0 -439 0 0 -1155z"/>
</g>
</svg>
